<svg width="58" height="58" viewBox="0 0 58 58" fill="none" xmlns="http://www.w3.org/2000/svg">
<path d="M57.8098 8.75891C57.7621 8.59414 57.6709 8.44526 57.5458 8.32787C57.4207 8.21048 57.2663 8.12891 57.0989 8.09172L51.2336 6.76664L49.9086 0.901409C49.8709 0.734381 49.7891 0.580522 49.6717 0.455894C49.5543 0.331267 49.4056 0.240439 49.2411 0.192892C49.0766 0.145346 48.9024 0.142824 48.7366 0.185589C48.5708 0.228355 48.4195 0.31484 48.2985 0.436017L41.5528 7.18282C35.8445 3.73827 29.0729 2.50223 22.5157 3.70794C15.9586 4.91366 10.0696 8.47774 5.95998 13.7276C1.85038 18.9774 -0.195521 25.5499 0.208361 32.2048C0.612242 38.8596 3.43797 45.1364 8.1523 49.8507C12.8666 54.5651 19.1435 57.3908 25.7983 57.7947C32.4531 58.1986 39.0256 56.1526 44.2754 52.0431C49.5253 47.9335 53.0893 42.0444 54.2951 35.4873C55.5008 28.9302 54.2647 22.1585 50.8202 16.4502L57.5686 9.70172C57.6894 9.58047 57.7755 9.42905 57.8179 9.26324C57.8603 9.09742 57.8575 8.92327 57.8098 8.75891ZM52.83 30.5546C52.8292 36.1419 50.9846 41.5727 47.5824 46.0046C44.1802 50.4366 39.4105 53.6219 34.0133 55.0665C28.616 56.5111 22.8929 56.1342 17.7317 53.9942C12.5705 51.8543 8.25975 48.0709 5.46815 43.2311C2.67656 38.3912 1.56016 32.7654 2.29214 27.2263C3.02412 21.6872 5.56356 16.5445 9.51653 12.596C13.4695 8.64739 18.615 6.11368 24.1549 5.38787C29.6948 4.66207 35.3194 5.78473 40.1561 8.58172L37.0581 11.6798C37.0315 11.7101 37.0068 11.742 36.9843 11.7755C32.5109 9.49806 27.372 8.89089 22.4911 10.0631C17.6102 11.2353 13.3074 14.11 10.3562 18.1705C7.405 22.231 5.99888 27.211 6.39058 32.2154C6.78228 37.2198 8.94611 41.9203 12.4932 45.4722C16.0402 49.0241 20.7378 51.1943 25.7417 51.5928C30.7455 51.9913 35.7274 50.592 39.7919 47.6463C43.8564 44.7006 46.737 40.4018 47.9158 35.5225C49.0947 30.6432 48.4945 25.5034 46.2232 21.027C46.2583 21.0021 46.2918 20.9749 46.3232 20.9455L49.4213 17.8474C51.6585 21.7083 52.8345 26.0924 52.83 30.5546ZM43.952 20.8673C46.3023 24.8795 47.11 29.6107 46.2238 34.1754C45.3377 38.7401 42.8185 42.8255 39.1377 45.6669C35.4569 48.5084 30.8668 49.9111 26.2265 49.6126C21.5862 49.3141 17.2136 47.3349 13.9272 44.0453C10.6408 40.7557 8.66574 36.3813 8.37172 31.7407C8.0777 27.1 9.48485 22.5113 12.3298 18.8332C15.1748 15.1552 19.2626 12.6399 23.8282 11.7582C28.3937 10.8764 33.1241 11.6887 37.1341 14.0428L38.142 18.5075L37.1751 19.4744C34.2918 16.9424 30.5368 15.631 26.7041 15.8174C22.8714 16.0038 19.2614 17.6734 16.6373 20.4732C14.0133 23.2731 12.581 26.9836 12.6431 30.8203C12.7053 34.6571 14.2571 38.3193 16.9704 41.0326C19.6838 43.746 23.3459 45.2978 27.1827 45.3599C31.0194 45.4221 34.73 43.9897 37.5298 41.3657C40.3296 38.7417 41.9992 35.1317 42.1856 31.2989C42.372 27.4662 41.0606 23.7112 38.5286 20.8279L39.4955 19.861L43.952 20.8673ZM31.5636 30.5546C31.567 31.4695 31.2666 32.3596 30.7094 33.0853C30.1523 33.8109 29.37 34.3311 28.4853 34.5642C27.6006 34.7972 26.6636 34.73 25.8213 34.373C24.9789 34.016 24.2789 33.3894 23.8312 32.5916C23.3834 31.7938 23.2131 30.8699 23.3471 29.9649C23.4811 29.0599 23.9118 28.225 24.5715 27.5912C25.2313 26.9574 26.0828 26.5605 26.9924 26.4629C27.9021 26.3653 28.8184 26.5725 29.5976 27.0519L26.7714 29.8781C26.68 29.9664 26.6071 30.0721 26.557 30.1888C26.5068 30.3056 26.4805 30.4312 26.4794 30.5583C26.4783 30.6853 26.5025 30.8114 26.5507 30.929C26.5988 31.0466 26.6699 31.1534 26.7598 31.2432C26.8497 31.3331 26.9565 31.4041 27.0742 31.4522C27.1918 31.5003 27.3178 31.5245 27.4449 31.5234C27.572 31.5222 27.6975 31.4958 27.8143 31.4456C27.931 31.3955 28.0366 31.3225 28.1249 31.2311L30.9511 28.4049C31.3513 29.0505 31.5634 29.795 31.5636 30.5546ZM30.9752 25.6743C29.7422 24.7812 28.2179 24.3854 26.7061 24.566C25.1943 24.7465 23.8061 25.49 22.818 26.6483C21.8299 27.8067 21.3146 29.2948 21.3747 30.8161C21.4348 32.3374 22.0659 33.7803 23.1423 34.8571C24.2186 35.9338 25.6612 36.5655 27.1825 36.6263C28.7038 36.687 30.1921 36.1722 31.3509 35.1846C32.5096 34.197 33.2537 32.8091 33.4348 31.2974C33.6159 29.7857 33.2208 28.2612 32.3282 27.0278L37.1724 22.1836C39.3429 24.7053 40.4514 27.9701 40.265 31.292C40.0785 34.614 38.6116 37.7343 36.1725 39.9972C33.7334 42.2601 30.5121 43.4894 27.1856 43.4268C23.859 43.3642 20.6863 42.0145 18.3341 39.6613C15.9819 37.3082 14.6335 34.1349 14.5722 30.8083C14.5109 27.4817 15.7415 24.2609 18.0054 21.8227C20.2694 19.3846 23.3902 17.9189 26.7122 17.7338C30.0342 17.5487 33.2986 18.6585 35.8194 20.8301L30.9752 25.6743ZM48.9368 15.6249L45.3449 19.2163L44.8062 19.0949L44.7854 19.0899L39.9921 18.0109L38.784 12.6609L48.4265 3.01672L49.5022 7.77782C49.5421 7.95432 49.6312 8.11591 49.7591 8.24387C49.8871 8.37182 50.0487 8.4609 50.2252 8.50079L54.9863 9.57649L48.9368 15.6249Z" fill="#FEBD00"/>
</svg>
