<svg width="38" height="40" viewBox="0 0 38 40" fill="none" xmlns="http://www.w3.org/2000/svg">
<path d="M37.9009 19.6468L34.5675 14.3134C34.4763 14.1661 34.3314 14.0601 34.1634 14.0177C33.9954 13.9754 33.8176 14.0002 33.6675 14.0867L24.3341 19.4201C24.1863 19.5056 24.077 19.6445 24.0286 19.8083C23.9802 19.972 23.9965 20.148 24.0741 20.3001L26.2541 24.6668H24.6674V23.3335C24.6663 23.191 24.6196 23.0527 24.5342 22.9387C24.4488 22.8248 24.3291 22.7412 24.1927 22.7002C24.0562 22.6592 23.9103 22.6629 23.7762 22.7109C23.6421 22.7589 23.5268 22.8486 23.4474 22.9668L18.114 30.9669C18.0392 31.0745 17.999 31.2024 17.999 31.3335C17.999 31.4646 18.0392 31.5926 18.114 31.7002L23.4474 39.7003C23.5071 39.7926 23.5891 39.8685 23.6857 39.921C23.7824 39.9734 23.8908 40.0007 24.0007 40.0003C24.0662 40.0012 24.1314 39.9922 24.1941 39.9736C24.3309 39.9313 24.4506 39.8463 24.5357 39.7312C24.6209 39.6161 24.667 39.4768 24.6674 39.3336V38.0003H27.3408C27.4582 38.0007 27.5738 37.9701 27.6756 37.9116C27.7775 37.8531 27.862 37.7687 27.9208 37.6669L37.9142 20.3335C37.9728 20.228 38.0024 20.1089 38.0001 19.9883C37.9977 19.8677 37.9635 19.7499 37.9009 19.6468ZM25.5474 20.2668L33.7742 15.5601L35.6008 18.4801L26.9608 23.0868L25.5474 20.2668ZM26.9541 36.6669H24.0007C23.8532 36.6686 23.7103 36.7183 23.5936 36.8085C23.4769 36.8987 23.3928 37.0246 23.3541 37.1669L19.4674 31.3335L23.3541 25.5002C23.3928 25.6425 23.4769 25.7683 23.5936 25.8586C23.7103 25.9488 23.8532 25.9985 24.0007 26.0002H27.3341C27.4477 25.9998 27.5594 25.9704 27.6585 25.9148C27.7576 25.8591 27.8408 25.7791 27.9003 25.6822C27.9597 25.5854 27.9934 25.4749 27.9982 25.3614C28.0029 25.2479 27.9786 25.135 27.9274 25.0335L27.5541 24.2802L36.3075 19.6135L36.5542 20.0135L26.9541 36.6669Z" fill="black"/>
<path d="M31.7605 2.82002C31.6504 2.72833 31.5136 2.67486 31.3705 2.66764C31.2274 2.66043 31.0859 2.69987 30.9672 2.78002L29.5205 3.74003L27.2538 0.313336C27.1931 0.221957 27.1109 0.14684 27.0144 0.0945443C26.918 0.042249 26.8102 0.0143668 26.7005 0.0133334L7.99366 0C7.88051 0.000517629 7.7693 0.0294867 7.67028 0.0842414C7.57125 0.138996 7.48759 0.217777 7.42699 0.313336L4.1003 5.64671C4.05311 5.72124 4.02167 5.80464 4.00791 5.89177C3.99416 5.97891 3.99837 6.06793 4.0203 6.15338C4.04023 6.24053 4.0777 6.32272 4.13043 6.39493C4.18315 6.46713 4.25002 6.52785 4.32697 6.57338L14.327 12.5734C14.4299 12.6345 14.5474 12.6667 14.667 12.6668C14.7254 12.6667 14.7835 12.66 14.8404 12.6468C14.9259 12.6228 15.0058 12.5822 15.0756 12.5273C15.1454 12.4723 15.2036 12.4042 15.247 12.3268L17.9671 7.42672L19.1404 9.77341L17.6337 10.7801C17.5155 10.8595 17.4258 10.9747 17.3778 11.1088C17.3299 11.243 17.3261 11.3889 17.3671 11.5253C17.4081 11.6617 17.4917 11.7814 17.6057 11.8669C17.7196 11.9523 17.858 11.999 18.0004 12.0001H28.0005C28.1324 12.0006 28.2613 11.9615 28.3707 11.8877C28.4801 11.814 28.5648 11.7092 28.6138 11.5868L31.9472 3.58669C32.0028 3.45584 32.0147 3.31053 31.981 3.17239C31.9474 3.03425 31.87 2.91066 31.7605 2.82002ZM14.4204 11.0734L5.59364 5.78004L8.23366 1.54668L17.0871 6.26671L14.4204 11.0734ZM27.5538 10.6667H20.2004L20.3671 10.5534C20.5024 10.4633 20.6002 10.3268 20.6419 10.1696C20.6837 10.0125 20.6665 9.84548 20.5938 9.70007L18.5937 5.70004C18.5331 5.57725 18.4351 5.47687 18.3137 5.41337L10.6737 1.33334L26.3405 1.34668L28.7805 5.03337C28.8275 5.10703 28.889 5.1704 28.9612 5.21967C29.0333 5.26894 29.1147 5.30308 29.2005 5.32004C29.2863 5.33721 29.3747 5.33722 29.4605 5.32006C29.5463 5.30289 29.6279 5.2689 29.7005 5.22004L29.8738 5.1067L27.5538 10.6667Z" fill="black"/>
<path d="M18.0004 24.6667H11.847L12.8804 22.9401L14.3004 23.8867C14.4181 23.963 14.5568 24.0001 14.6969 23.9929C14.8369 23.9857 14.9711 23.9345 15.0804 23.8467C15.1897 23.7588 15.2685 23.6387 15.3056 23.5035C15.3427 23.3682 15.3362 23.2247 15.287 23.0934L11.9537 14.4267C11.9027 14.2937 11.8105 14.1805 11.6905 14.1037C11.5705 14.0269 11.4291 13.9906 11.287 14L1.28694 14.6667C1.14837 14.6773 1.01644 14.7304 0.909094 14.8187C0.801744 14.9069 0.724176 15.0261 0.686931 15.16C0.651556 15.2952 0.659556 15.4381 0.7098 15.5685C0.760044 15.6989 0.849992 15.8102 0.966933 15.8867L2.36028 16.82L0.146927 19.5867C0.0632816 19.6908 0.0128407 19.8177 0.00214249 19.9508C-0.00855577 20.084 0.0209819 20.2172 0.0869268 20.3334L10.0803 37.6668C10.1391 37.7686 10.2236 37.853 10.3255 37.9115C10.4274 37.9701 10.5429 38.0006 10.6603 38.0002H18.0004C18.1772 38.0002 18.3468 37.9299 18.4718 37.8049C18.5968 37.6799 18.6671 37.5103 18.6671 37.3335V25.3334C18.6671 25.1566 18.5968 24.987 18.4718 24.862C18.3468 24.737 18.1772 24.6667 18.0004 24.6667ZM3.70029 16.1133L3.34028 15.8667L10.887 15.3667L13.2937 21.6134L13.0337 21.4467C12.9591 21.3953 12.8747 21.36 12.7857 21.3429C12.6968 21.3258 12.6053 21.3273 12.5169 21.3473C12.4286 21.3674 12.3454 21.4055 12.2725 21.4594C12.1997 21.5132 12.1388 21.5815 12.0937 21.6601L11.187 23.1667L2.63361 18.6067L3.85362 17.08C3.91189 17.0092 3.95449 16.9268 3.97862 16.8384C4.00275 16.7499 4.00786 16.6573 3.99362 16.5667C3.98067 16.4743 3.94771 16.3859 3.89705 16.3076C3.84638 16.2293 3.77923 16.163 3.70029 16.1133ZM17.3337 36.6668H11.047L1.4736 20.06L1.78694 19.6667L10.5003 24.3134L10.0937 24.9934C10.0337 25.0946 10.0015 25.2099 10.0005 25.3276C9.99945 25.4453 10.0296 25.5611 10.0878 25.6634C10.1461 25.7656 10.2303 25.8506 10.332 25.9098C10.4338 25.9689 10.5493 26.0001 10.667 26.0001H17.3337V36.6668Z" fill="black"/>
<path d="M23.3334 13.3335C22.23 13.335 21.1484 13.6406 20.2074 14.217C19.2665 14.7933 18.5027 15.6179 18 16.6002C17.4974 15.6179 16.7336 14.7933 15.7927 14.217C14.8517 13.6406 13.7701 13.335 12.6667 13.3335C12.4899 13.3335 12.3203 13.4037 12.1953 13.5288C12.0702 13.6538 12 13.8234 12 14.0002V15.3335C12.003 16.8082 12.5481 18.2304 13.5315 19.3293C14.5149 20.4283 15.868 21.1274 17.3334 21.2936V23.3336H18.6667V21.2936C20.132 21.1274 21.4851 20.4283 22.4686 19.3293C23.452 18.2304 23.997 16.8082 24.0001 15.3335V14.0002C24.0001 13.8234 23.9298 13.6538 23.8048 13.5288C23.6798 13.4037 23.5102 13.3335 23.3334 13.3335ZM17.3334 19.9535C16.2232 19.7915 15.2084 19.2357 14.4741 18.3875C13.7397 17.5393 13.3349 16.4554 13.3333 15.3335V14.7135C14.4435 14.8756 15.4583 15.4314 16.1926 16.2796C16.927 17.1277 17.3319 18.2117 17.3334 19.3335V19.9535ZM22.6667 15.3335C22.6652 16.4554 22.2604 17.5393 21.526 18.3875C20.7917 19.2357 19.7768 19.7915 18.6667 19.9535V19.3335C18.6682 18.2117 19.0731 17.1277 19.8074 16.2796C20.5418 15.4314 21.5566 14.8756 22.6667 14.7135V15.3335Z" fill="black"/>
</svg>
