<svg width="162" height="24" viewBox="0 0 162 24" fill="none" xmlns="http://www.w3.org/2000/svg">
<path fill-rule="evenodd" clip-rule="evenodd" d="M3.44607 4.70424C2.35845 4.94629 1.65465 5.3179 1.17595 5.90287C0.58826 6.62071 0.411454 7.42147 0.477133 9.06705C0.554352 11.0039 0.906396 11.715 2.09032 12.3251L2.92648 12.7559L7.43125 12.8277C12.2856 12.905 12.4466 12.9311 12.8602 13.7095C13.1237 14.2052 12.9366 15.244 12.5056 15.6784L12.1308 16.056L8.39392 16.0933C4.29733 16.1343 4.16469 16.1122 3.66006 15.3042L3.37484 14.8475L1.68742 14.842L0 14.8364L0.0987321 15.5897C0.305884 17.172 0.969368 18.0861 2.23351 18.5309C2.86323 18.7526 3.56062 18.7821 8.14759 18.7821C14.0279 18.7821 14.3438 18.7361 15.31 17.7392C16.0803 16.9443 16.3121 16.1805 16.3214 14.406C16.3342 12.0024 15.7474 10.826 14.3133 10.3805C13.9736 10.2749 12.068 10.1873 9.14489 10.143C4.7085 10.0757 4.50121 10.0602 4.19404 9.77513C3.94002 9.53939 3.87348 9.32159 3.87348 8.72629C3.87348 8.06341 3.92506 7.93112 4.31187 7.60341L4.7501 7.23194H8.36557C10.7991 7.23194 12.0992 7.28617 12.3426 7.39794C12.5444 7.49049 12.7806 7.77601 12.8766 8.04361L13.0489 8.52326H14.7386H16.4284L16.3308 7.84173C16.0705 6.02239 15.155 5.06179 13.3052 4.66693C12.2584 4.44353 4.48539 4.47295 3.44607 4.70424ZM18.6904 12.0842C18.6904 15.9495 18.7926 16.5543 19.6071 17.5126C19.8866 17.8415 20.4317 18.2455 20.8568 18.4389C21.5753 18.7659 21.7528 18.7821 24.6029 18.7821C27.8068 18.7821 28.0642 18.7325 28.9126 17.9512L29.2332 17.6559V18.255V18.8539H30.9428H32.6525V13.7603V8.66674H30.9428H29.2332V11.5628C29.2332 14.9957 29.116 15.4172 27.9729 16.0939C27.3496 16.4629 27.2073 16.4864 25.6002 16.4857C24.0994 16.485 23.8168 16.4453 23.2869 16.1609C22.2107 15.5832 22.1097 15.1991 22.1097 11.6856V8.66674H20.4H18.6904V12.0842ZM34.932 13.7603V18.8539H36.6417H38.3513L38.3547 16.1636C38.3593 12.5797 38.516 11.9929 39.6485 11.3211C40.0662 11.0733 40.3883 11.0342 42.0095 11.0342C43.6838 11.0342 43.9303 11.0663 44.289 11.3313C45.1162 11.9424 45.1895 12.3002 45.1896 15.7332L45.1899 18.8539H46.8995H48.6092V15.5608C48.6092 13.7221 48.5405 11.9453 48.4536 11.5372C48.2336 10.5046 47.5757 9.68875 46.5434 9.16892L45.6885 8.73848H42.8391C40.1404 8.73848 39.9574 8.75584 39.3772 9.06777C39.0404 9.24899 38.729 9.49104 38.6853 9.60582C38.5322 10.0074 38.3513 9.80956 38.3513 9.24066V8.66674H36.6417H34.932V13.7603Z" fill="#EA7322"/>
<path fill-rule="evenodd" clip-rule="evenodd" d="M59.6326 3.48209C61.5521 1.55468 64.1964 0.481269 67.7089 0.203528C68.6126 0.132073 71.1452 0.182504 72.3025 0.294913C76.0371 0.657841 79.4539 1.40089 86.8853 3.46611C88.3891 3.88403 90.3031 4.39959 91.1386 4.61177C96.1601 5.88715 98.9395 6.03098 101.62 5.15413C101.973 5.03862 102.836 4.65461 103.553 4.29435C104.715 3.7105 104.888 3.64074 105.233 3.61881C105.567 3.59748 105.634 3.6117 105.752 3.72957C105.865 3.84271 105.883 3.91314 105.859 4.16086C105.728 5.52465 103.134 7.60786 100.5 8.46472C98.8468 9.0027 97.2904 9.21287 94.9665 9.21202C90.9096 9.21056 86.8122 8.48191 79.3812 6.44033C78.2283 6.12358 76.4785 5.64265 75.4928 5.37165C71.7485 4.34205 69.7302 3.91769 67.6846 3.72988C65.3145 3.51223 63.1081 3.90724 61.2135 4.88836C59.7498 5.64642 59.5347 5.74072 59.1885 5.77645C58.6885 5.82809 58.54 5.71575 58.54 5.28568C58.54 4.75243 58.8081 4.30991 59.6326 3.48209ZM60.2243 9.91193C62.2492 8.26287 64.7681 7.38164 67.9884 7.19565C69.1558 7.12827 69.5758 7.12796 70.7835 7.19347C74.6722 7.40449 78.6721 8.18977 85.4877 10.0804C90.8963 11.5807 92.6106 12.0181 94.2824 12.3242C98.1069 13.0246 100.662 12.7835 103.2 11.483C103.651 11.2518 104.206 10.9684 104.433 10.8532C104.708 10.7142 104.967 10.633 105.203 10.6115C105.531 10.5818 105.572 10.5925 105.724 10.7442C105.872 10.8926 105.885 10.9396 105.853 11.2101C105.694 12.5515 103.119 14.6124 100.557 15.4489C97.0006 16.6098 92.2744 16.486 85.7878 15.062C83.58 14.5773 81.7264 14.0966 76.665 12.6959C71.6089 11.2967 69.6471 10.8802 67.3145 10.7106C65.0955 10.5493 63.0814 10.9406 61.2135 11.8957C60.7624 12.1264 60.2019 12.4121 59.9679 12.5306C59.4509 12.7926 58.937 12.8576 58.6857 12.6929C58.5369 12.5955 58.5282 12.564 58.5509 12.2086C58.5699 11.9098 58.6201 11.7533 58.7854 11.4775C59.0441 11.0457 59.6751 10.3593 60.2243 9.91193ZM60.0704 17.0498C61.9903 15.4382 64.252 14.5533 67.2289 14.249C68.1133 14.1587 70.8149 14.1729 71.9683 14.2741C75.81 14.6109 79.1276 15.3218 86.8853 17.4708C93.1331 19.2015 95.1553 19.6228 97.5493 19.6928C99.918 19.762 101.413 19.4071 103.7 18.233C104.828 17.6537 104.92 17.6173 105.27 17.6153C105.588 17.6134 105.657 17.6336 105.757 17.7566C106.107 18.1883 105.618 19.1521 104.552 20.1333C103.225 21.3544 101.45 22.2794 99.554 22.7383C97.1258 23.326 94.4174 23.3931 90.8651 22.9537C87.6106 22.5512 84.0746 21.756 77.8318 20.0231C72.9052 18.6556 71.4366 18.2918 69.5913 17.9819C68.1776 17.7444 67.3915 17.6867 66.0238 17.7197C63.8393 17.7725 62.6465 18.1096 60.4007 19.3089C59.7023 19.6819 59.5734 19.73 59.1994 19.7567C58.6607 19.7953 58.54 19.7067 58.54 19.2729C58.54 18.6968 59.1309 17.8384 60.0704 17.0498Z" fill="#DE1023"/>
<path fill-rule="evenodd" clip-rule="evenodd" d="M117.295 12.6757C116.232 8.60105 115.346 5.19003 115.325 5.09572L115.287 4.92432H116.717H118.148L118.209 5.15217C118.242 5.27752 118.956 8.15506 119.795 11.5468C120.635 14.9386 121.334 17.7268 121.35 17.7427C121.366 17.7588 121.399 17.7396 121.422 17.7002C121.445 17.6608 122.243 14.7702 123.196 11.2766L124.927 4.92456L126.582 4.92444L128.236 4.92432L128.326 5.24331C128.375 5.41879 129.102 8.15986 129.94 11.3347C131.582 17.5498 131.632 17.7469 131.679 17.746C131.682 17.746 131.685 17.7449 131.689 17.7449C131.713 17.7449 132.471 14.8605 133.373 11.3351L135.014 4.92535L136.464 4.92486L137.913 4.92432L137.872 5.09141C137.807 5.35493 134.013 19.4399 133.912 19.7957L133.82 20.1147H131.728C130.578 20.1147 129.636 20.1014 129.636 20.0852C129.636 20.0018 126.638 8.6476 126.596 8.57C126.551 8.48901 126.542 8.48901 126.514 8.57C126.485 8.6527 123.6 19.2476 123.441 19.8572L123.373 20.1163L121.3 20.1003L119.228 20.0843L117.295 12.6757ZM136.032 20.0387C136.057 19.9704 140.974 5.18219 141.032 5.00027C141.05 4.94139 141.534 4.92432 143.179 4.92432H145.302L145.402 5.21293C145.855 6.51189 150.417 20.0179 150.417 20.0601C150.417 20.0908 149.786 20.1147 148.973 20.1147H147.529L147.035 18.702L146.541 17.2893H143.243H139.946L139.562 18.4437C139.351 19.0787 139.134 19.7144 139.081 19.8564L138.984 20.1147H137.494C136.327 20.1147 136.01 20.0982 136.032 20.0387ZM150.803 9.66693C149.311 7.10863 148.078 4.9945 148.064 4.96892C148.05 4.94327 148.782 4.9296 149.691 4.93854L151.343 4.9547L153.127 8.17457C154.108 9.94546 154.933 11.4019 154.96 11.411C154.987 11.4201 155.811 10.0071 156.79 8.271C157.769 6.53486 158.602 5.07118 158.641 5.01831C158.702 4.9341 158.914 4.92425 160.356 4.93847L162 4.9547L159.218 9.60295L156.436 14.2512L156.434 17.1829L156.432 20.1147H154.974H153.516V17.2165V14.3185L150.803 9.66693ZM145.86 14.9961C145.86 14.9546 145.279 13.1773 144.569 11.0466C143.859 8.9158 143.259 7.17249 143.235 7.17249C143.191 7.17249 140.634 14.8972 140.634 15.0313C140.634 15.0534 141.81 15.0715 143.247 15.0715C145.287 15.0715 145.86 15.055 145.86 14.9961Z" fill="#939393"/>
</svg>
