<svg width="70" height="64" viewBox="0 0 70 64" fill="none" xmlns="http://www.w3.org/2000/svg">
<path d="M69.6749 60.5527L54.9615 36.6391C54.5591 35.9853 53.8607 35.595 53.093 35.595C52.3254 35.595 51.6269 35.9855 51.2248 36.6391L49.3146 39.7439C49.0174 40.2269 49.1681 40.8595 49.6511 41.1567C50.1344 41.4538 50.7667 41.3033 51.0641 40.8203L52.9743 37.7154C52.9844 37.699 53.0152 37.6489 53.0932 37.6489C53.1713 37.6489 53.2022 37.699 53.2123 37.7154L67.9257 61.629C67.9375 61.648 67.9687 61.6987 67.9287 61.7702C67.8888 61.8417 67.8292 61.8417 67.8068 61.8417H59.6583L36.8683 24.8022C36.6636 24.4694 36.382 24.2054 36.0537 24.0259C36.0541 24.026 36.0545 24.0263 36.0548 24.0264V17.0565C36.9094 17.2882 37.7419 17.3872 38.5564 17.3872C40.8986 17.3872 43.092 16.5731 45.2378 15.7765C48.2112 14.6728 51.0196 13.6303 54.0573 14.8485C54.449 15.0056 54.8916 14.9583 55.2412 14.7217C55.5914 14.485 55.8003 14.0913 55.8003 13.6689V2.06733C55.8003 1.556 55.4969 1.09649 55.0278 0.896883C51.1719 -0.747433 47.7917 0.507098 44.5229 1.72034C41.4607 2.85702 38.5684 3.93067 35.4191 2.52315C35.1012 2.3811 34.7333 2.40981 34.4413 2.59903C34.1492 2.78839 33.973 3.11268 33.973 3.46077V3.49891C33.9554 3.57534 33.9452 3.6545 33.9452 3.73626V24.0264C33.6175 24.2059 33.3362 24.4698 33.1316 24.8022L22.3118 42.3873L18.7752 36.6393C18.373 35.9855 17.6745 35.5951 16.9068 35.5951C16.1393 35.5951 15.4408 35.9855 15.0385 36.6393L0.325003 60.5527C-0.0910322 61.2288 -0.108806 62.0794 0.278382 62.7724C0.665569 63.4654 1.39934 63.8959 2.19326 63.8959H67.8066C68.6006 63.8959 69.3343 63.4654 69.7215 62.7724C70.1089 62.0794 70.091 61.2287 69.6749 60.5527ZM36.0271 4.91888C39.3516 5.83079 42.3377 4.72241 45.2378 3.64589C48.1068 2.58085 50.8251 1.57214 53.7464 2.60108V12.5795C50.4118 11.6651 47.4227 12.7747 44.523 13.851C41.6588 14.9141 38.9431 15.9221 36.0271 14.8963V4.91888ZM12.7534 61.8419L16.2768 56.1154C16.574 55.6324 16.4234 54.9998 15.9403 54.7026C15.4572 54.4055 14.8247 54.556 14.5275 55.039L10.3418 61.8419H2.1934C2.17098 61.8419 2.11137 61.8419 2.07145 61.7704C2.03153 61.6989 2.06256 61.6483 2.07446 61.6291L16.788 37.7157C16.7981 37.6993 16.8289 37.6492 16.9069 37.6492C16.985 37.6492 17.0158 37.6993 17.0259 37.7157L21.1061 44.3471L17.032 50.9685C16.7348 51.4515 16.8855 52.0841 17.3685 52.3813C17.8518 52.6786 18.4843 52.5279 18.7814 52.0449L34.8811 25.8784C34.8912 25.862 34.922 25.812 35 25.812C35.078 25.812 35.1087 25.862 35.119 25.8784L57.2466 61.8419H12.7534Z" fill="#FEBD00"/>
</svg>
