<svg width="24" height="24" viewBox="0 0 24 24" fill="none" xmlns="http://www.w3.org/2000/svg">
<path d="M14.6774 5.20817C15.6948 5.40668 16.6299 5.90427 17.3629 6.63727C18.0959 7.37027 18.5935 8.30532 18.792 9.32275M14.6774 1.0415C16.7912 1.27633 18.7624 2.22294 20.2672 3.72589C21.7721 5.22884 22.7212 7.19881 22.9586 9.31234M21.917 17.6248V20.7498C21.9182 21.0399 21.8587 21.3271 21.7425 21.5929C21.6263 21.8587 21.4558 22.0973 21.2421 22.2934C21.0283 22.4896 20.7759 22.6389 20.5011 22.7318C20.2263 22.8248 19.9351 22.8593 19.6461 22.8332C16.4408 22.4849 13.3618 21.3896 10.6566 19.6353C8.13972 18.0359 6.00588 15.9021 4.40657 13.3853C2.64613 10.6678 1.55057 7.57379 1.20865 4.354C1.18262 4.06595 1.21685 3.77563 1.30917 3.50153C1.40149 3.22743 1.54987 2.97556 1.74486 2.76194C1.93986 2.54833 2.1772 2.37766 2.44177 2.2608C2.70633 2.14394 2.99234 2.08344 3.28157 2.08317H6.40657C6.91209 2.0782 7.40218 2.25721 7.78549 2.58685C8.16879 2.91649 8.41915 3.37426 8.4899 3.87484C8.6218 4.87491 8.86641 5.85684 9.21907 6.80192C9.35922 7.17476 9.38955 7.57996 9.30647 7.9695C9.22339 8.35905 9.03038 8.71662 8.75032 8.99984L7.4274 10.3228C8.91027 12.9306 11.0695 15.0899 13.6774 16.5728L15.0003 15.2498C15.2835 14.9698 15.6411 14.7768 16.0306 14.6937C16.4202 14.6106 16.8254 14.6409 17.1982 14.7811C18.1433 15.1337 19.1252 15.3784 20.1253 15.5103C20.6313 15.5816 21.0934 15.8365 21.4238 16.2264C21.7541 16.6163 21.9297 17.114 21.917 17.6248Z" stroke="#2D2D2D" stroke-width="2" stroke-linecap="round" stroke-linejoin="round"/>
</svg>
