<svg width="40" height="40" viewBox="0 0 40 40" fill="none" xmlns="http://www.w3.org/2000/svg">
<g clip-path="url(#clip0)">
<path d="M20.5225 21.8303C20.4485 21.8143 20.3726 21.8114 20.2976 21.8226C19.5463 21.7351 18.9796 21.0995 18.9783 20.3435C18.9783 19.9811 18.6845 19.6873 18.3222 19.6873C17.9599 19.6873 17.6661 19.9811 17.6661 20.3435C17.668 21.606 18.5125 22.7119 19.7299 23.0461V23.7022C19.7299 24.0645 20.0237 24.3583 20.386 24.3583C20.7484 24.3583 21.0421 24.0645 21.0421 23.7022V23.0858C22.4473 22.7917 23.4023 21.483 23.2546 20.0551C23.1066 18.6272 21.9036 17.5422 20.468 17.5418C19.6453 17.5418 18.9783 16.8748 18.9783 16.0521C18.9783 15.2294 19.6453 14.5624 20.468 14.5624C21.2907 14.5624 21.9577 15.2294 21.9577 16.0521C21.9577 16.4145 22.2515 16.7082 22.6139 16.7082C22.9762 16.7082 23.27 16.4145 23.27 16.0521C23.268 14.7264 22.3393 13.583 21.0421 13.3094V12.7123C21.0421 12.3499 20.7484 12.0562 20.386 12.0562C20.0237 12.0562 19.7299 12.3499 19.7299 12.7123V13.3495C18.376 13.7192 17.5046 15.0337 17.6911 16.4247C17.8775 17.8157 19.0645 18.8541 20.468 18.8537C21.2798 18.8537 21.942 19.5038 21.9568 20.3153C21.9718 21.1268 21.3337 21.8008 20.5225 21.8303Z" fill="#262626"/>
<path d="M10.9531 18.2482C10.9531 23.5029 15.2127 27.7625 20.4674 27.7625C25.7221 27.7625 29.9817 23.5029 29.9817 18.2482C29.9817 12.9935 25.7221 8.73389 20.4674 8.73389C15.2153 8.73965 10.9592 12.9961 10.9531 18.2482ZM20.4674 10.0461C24.9974 10.0461 28.6695 13.7182 28.6695 18.2482C28.6695 22.7782 24.9974 26.4503 20.4674 26.4503C15.9374 26.4503 12.2654 22.7782 12.2654 18.2482C12.2705 13.7204 15.9397 10.0512 20.4674 10.0461Z" fill="#262626"/>
<path d="M33.2165 29.3803L28.0769 31.8086C27.3673 30.4887 26.006 29.6487 24.508 29.6064L19.7633 29.476C19.012 29.4546 18.2749 29.2643 17.6069 28.9192L17.1241 28.669C14.6521 27.3805 11.7057 27.3837 9.2363 28.6774L9.26641 27.5836C9.27635 27.2213 8.9909 26.9195 8.62856 26.9096L3.42577 26.7664C3.06343 26.7564 2.76196 27.0419 2.75203 27.4042L2.43775 38.8215C2.42782 39.1839 2.71327 39.4856 3.07561 39.4956L8.2784 39.6388H8.29634C8.65195 39.6388 8.94284 39.3559 8.95245 39.0006L8.96751 38.4544L10.3191 37.7307C10.8497 37.4452 11.4699 37.3773 12.0495 37.5413L20.1208 39.8067C20.1349 39.8108 20.149 39.814 20.1634 39.8172C20.7468 39.9393 21.3414 40.0005 21.9373 40.0002C23.1996 40.0008 24.4471 39.7288 25.5943 39.2021C25.6225 39.1893 25.6498 39.1742 25.6757 39.1573L37.3785 31.5876C37.67 31.3989 37.7642 31.0161 37.5934 30.7136C36.7246 29.172 34.7976 28.5848 33.2165 29.3803ZM3.7676 38.2019L4.04568 28.0962L7.93656 28.2032L7.65848 38.3093L3.7676 38.2019ZM25.0033 38.0302C23.5779 38.6735 21.986 38.851 20.454 38.538L12.4044 36.2784C11.4984 36.0225 10.5287 36.1285 9.69987 36.5741L9.00916 36.9442L9.19401 30.2251C11.3828 28.7693 14.1898 28.6197 16.5208 29.8342L17.0036 30.0844C17.8475 30.5201 18.7782 30.7604 19.7274 30.788L24.4724 30.9183C25.8051 30.9568 26.937 31.9057 27.2074 33.2115L20.1397 33.0164C19.7774 33.0065 19.4759 33.2923 19.4657 33.6543C19.4557 34.0166 19.7415 34.3184 20.1035 34.3283L27.9032 34.543H27.9215C28.2768 34.5427 28.5674 34.2598 28.577 33.9048C28.585 33.6197 28.5638 33.3342 28.5135 33.0536L33.7852 30.5627C33.7903 30.5605 33.7955 30.5579 33.8006 30.5554C34.5483 30.177 35.4524 30.3036 36.0675 30.8729L25.0033 38.0302Z" fill="#262626"/>
<path d="M21.1238 6.88921V0.656115C21.1238 0.293778 20.83 0 20.4676 0C20.1053 0 19.8115 0.293778 19.8115 0.656115V6.88921C19.8115 7.25155 20.1053 7.54533 20.4676 7.54533C20.83 7.54533 21.1238 7.25155 21.1238 6.88921Z" fill="#262626"/>
<path d="M26.0447 6.8894V3.93688C26.0447 3.57454 25.7509 3.28076 25.3885 3.28076C25.0262 3.28076 24.7324 3.57454 24.7324 3.93688V6.8894C24.7324 7.25173 25.0262 7.54551 25.3885 7.54551C25.7509 7.54551 26.0447 7.25173 26.0447 6.8894Z" fill="#262626"/>
<path d="M16.2029 6.8894V3.93688C16.2029 3.57454 15.9091 3.28076 15.5467 3.28076C15.1844 3.28076 14.8906 3.57454 14.8906 3.93688V6.8894C14.8906 7.25173 15.1844 7.54551 15.5467 7.54551C15.9091 7.54551 16.2029 7.25173 16.2029 6.8894Z" fill="#262626"/>
</g>
<defs>
<clipPath id="clip0">
<rect width="40" height="40" fill="white"/>
</clipPath>
</defs>
</svg>
