<svg width="40" height="40" viewBox="0 0 40 40" fill="none" xmlns="http://www.w3.org/2000/svg">
<g clip-path="url(#clip0)">
<path d="M36.4616 23.3108C36.458 23.3099 36.4543 23.309 36.4507 23.3081C36.1227 23.2304 35.7937 23.4327 35.7152 23.7605C33.6397 32.4386 24.9223 37.791 16.2442 35.7156C11.4792 34.5759 7.48868 31.3356 5.39518 26.9061L4.17285 27.1616C8.1248 35.906 18.4171 39.7911 27.1616 35.8393C32.0557 33.6275 35.6518 29.2768 36.903 24.054C36.9863 23.7268 36.7887 23.3941 36.4616 23.3108Z" fill="black"/>
<path d="M8.19584 24.4484C8.17546 24.3404 8.12635 24.2398 8.05366 24.1574L5.67461 21.5055L3.32317 18.8813C3.11583 18.6149 2.73186 18.5671 2.46547 18.7744C2.36913 18.8495 2.2974 18.9517 2.25968 19.0678L1.14093 22.4551L0.0290952 25.8389C-0.0735426 26.1605 0.104023 26.5043 0.425576 26.6069C0.520617 26.6372 0.621529 26.6439 0.719678 26.6262L4.20712 25.8942L7.70837 25.1622C8.04011 25.0997 8.25833 24.7802 8.19584 24.4484ZM3.97577 24.6961L1.52075 25.214L2.30111 22.8315L3.08492 20.4525L4.75613 22.317L6.42734 24.1816L3.97577 24.6961Z" fill="black"/>
<path d="M39.993 13.8471C39.9239 13.5175 39.6012 13.306 39.2713 13.3741L35.7839 14.1061L32.2999 14.8208C31.9682 14.8833 31.7499 15.2029 31.8124 15.5345C31.8328 15.6426 31.8819 15.7432 31.9546 15.8256L34.3337 18.4775L36.6851 21.1017C36.8924 21.3681 37.2764 21.4159 37.5428 21.2085C37.6391 21.1335 37.7109 21.0314 37.7486 20.9152L38.857 17.5279L39.9654 14.1406C39.9985 14.0465 40.008 13.9457 39.993 13.8471ZM37.7037 17.1688L36.9234 19.5479L35.2521 17.6833L33.5809 15.8187L36.0325 15.3042L38.4841 14.7897L37.7037 17.1688Z" fill="black"/>
<path d="M12.8472 4.16089C7.95324 6.37265 4.35703 10.7233 3.10587 15.9462C3.01281 16.2707 3.20048 16.6091 3.52496 16.7021C3.84945 16.7952 4.18784 16.6075 4.28089 16.283C4.28599 16.2653 4.29022 16.2474 4.29367 16.2293C6.37293 7.55216 15.0927 2.20343 23.7699 4.28269C28.5334 5.42413 32.5217 8.66495 34.6137 13.0941L35.836 12.8386C31.8841 4.09407 21.5917 0.208942 12.8472 4.16089Z" fill="black"/>
<path d="M26.4127 9.23372C26.4127 8.8962 26.139 8.62256 25.8015 8.62256H17.8978C17.6337 8.6229 17.3998 8.79279 17.3177 9.04381L13.6404 20.2969C13.5126 20.6093 13.6623 20.9661 13.9747 21.0939C14.0494 21.1244 14.1294 21.1399 14.2101 21.1394H16.9724L14.5554 30.5555C14.4418 30.8733 14.6073 31.2231 14.9251 31.3367C15.1617 31.4213 15.4259 31.3524 15.5913 31.1632L25.8084 19.2782C26.0431 19.0357 26.0368 18.6488 25.7943 18.4141C25.6753 18.2989 25.5147 18.2369 25.3492 18.2424H21.7651L26.316 9.56866C26.3801 9.46869 26.4136 9.35233 26.4127 9.23372ZM20.2147 18.5877C20.0603 18.8878 20.1783 19.2563 20.4784 19.4107C20.5646 19.455 20.66 19.4783 20.7568 19.4785H24.0129L16.3543 28.3836L18.3363 20.6905C18.4183 20.3631 18.2194 20.0312 17.8919 19.9491C17.8442 19.9371 17.7951 19.931 17.7459 19.9308H15.0526L18.3398 9.84834H24.7898L20.2147 18.5877Z" fill="black"/>
</g>
<defs>
<clipPath id="clip0">
<rect width="40" height="40" fill="white"/>
</clipPath>
</defs>
</svg>
