<svg width="40" height="40" viewBox="0 0 40 40" fill="none" xmlns="http://www.w3.org/2000/svg">
<g clip-path="url(#clip0)">
<path d="M35.1471 8.0989L20.1134 0.0881401C19.8904 -0.0308936 19.6231 -0.0292231 19.4017 0.0923166L4.78393 8.10308C4.5442 8.23464 4.39551 8.48607 4.39551 8.75964V19.2237C4.40428 27.8255 9.50059 35.6074 17.3819 39.0535L19.4109 39.9377C19.6005 40.0204 19.8164 40.0208 20.0065 39.9385L22.2927 38.9512C30.3202 35.5798 35.5427 27.7228 35.5435 19.0162V8.75964C35.5435 8.48315 35.391 8.22879 35.1471 8.0989ZM34.0466 19.0162C34.0449 27.1226 29.1812 34.4371 21.7068 37.5742L21.7018 37.5767L19.7108 38.4362L17.9808 37.6815C10.6446 34.4738 5.90034 27.2307 5.89199 19.2237V9.20278L19.7663 1.59882L34.0466 9.20821V19.0162Z" fill="black"/>
<path d="M14.2437 18.7384C13.9752 18.4239 13.5028 18.3868 13.1883 18.6553C12.8738 18.9235 12.8366 19.3963 13.1052 19.7103L17.0588 24.3401C17.3227 24.6492 17.7851 24.6914 18.1 24.4349L27.3078 16.9437C27.6286 16.6831 27.677 16.2116 27.416 15.8908C27.1553 15.5705 26.6838 15.5216 26.363 15.7826L17.7224 22.8119L14.2437 18.7384Z" fill="black"/>
</g>
<defs>
<clipPath id="clip0">
<rect width="40" height="40" fill="white"/>
</clipPath>
</defs>
</svg>
