<svg width="25" height="23" viewBox="0 0 25 23" fill="none" xmlns="http://www.w3.org/2000/svg">
<path d="M24.614 1.48337C24.3086 1.10991 23.8512 0.904297 23.326 0.904297C23.0404 0.904297 22.7379 0.964378 22.427 1.08321L1.26499 9.16141C0.141946 9.58999 -0.00930676 10.2331 0.000420707 10.5784C0.0101482 10.9236 0.197641 11.5572 1.34319 11.9217C1.35006 11.9238 1.35693 11.9259 1.36379 11.9278L5.75337 13.184L8.12725 19.9723C8.45093 20.8977 9.17744 21.4726 10.0235 21.4726C10.557 21.4726 11.0817 21.2491 11.541 20.8264L14.2561 18.3264L18.1942 21.4974C18.1946 21.4978 18.1952 21.498 18.1956 21.4983L18.233 21.5285C18.2364 21.5311 18.24 21.534 18.2434 21.5367C18.6812 21.8762 19.159 22.0555 19.6257 22.0557H19.6259C20.5378 22.0557 21.2639 21.3807 21.4754 20.3362L24.9428 3.21505C25.0821 2.52783 24.9653 1.9129 24.614 1.48337ZM7.22183 12.9454L15.6906 8.61896L10.4174 14.2222C10.331 14.3139 10.2698 14.4263 10.2396 14.5485L9.22283 18.6673L7.22183 12.9454ZM10.5486 19.7487C10.5135 19.781 10.4782 19.8098 10.443 19.8363L11.3863 16.0155L13.1024 17.3973L10.5486 19.7487ZM23.5072 2.92418L20.0398 20.0455C20.0064 20.2094 19.8998 20.5906 19.6257 20.5906C19.4903 20.5906 19.3201 20.5168 19.146 20.3827L14.6836 16.7897C14.683 16.7891 14.6822 16.7885 14.6815 16.7881L12.0263 14.65L19.652 6.547C19.8962 6.2876 19.9183 5.8903 19.7045 5.60534C19.4905 5.32038 19.1027 5.23074 18.7855 5.39286L6.24317 11.8004L1.7939 10.5275L22.9494 2.45173C23.1282 2.38345 23.2529 2.36914 23.326 2.36914C23.3708 2.36914 23.4505 2.37448 23.4801 2.41091C23.519 2.45841 23.5686 2.62034 23.5072 2.92418Z" fill="#212121"/>
</svg>
