<svg width="40" height="34" viewBox="0 0 40 34" fill="none" xmlns="http://www.w3.org/2000/svg">
<path d="M39.3824 0.973389C38.8938 0.375855 38.162 0.046875 37.3215 0.046875C36.8647 0.046875 36.3807 0.143005 35.8832 0.33313L2.02399 13.2582C0.227114 13.944 -0.0148908 14.973 0.000673131 15.5254C0.0162371 16.0778 0.316225 17.0916 2.14911 17.6748C2.1601 17.6781 2.17108 17.6815 2.18207 17.6845L9.20538 19.6944L13.0036 30.5556C13.5215 32.0363 14.6839 32.9561 16.0377 32.9561C16.8912 32.9561 17.7308 32.5985 18.4656 31.9222L22.8098 27.9223L29.1108 32.9958C29.1114 32.9964 29.1123 32.9967 29.1129 32.9973L29.1727 33.0456C29.1782 33.0498 29.184 33.0544 29.1895 33.0587C29.8899 33.6019 30.6544 33.8888 31.4011 33.8891H31.4014C32.8605 33.8891 34.0223 32.809 34.3607 31.1379L39.9085 3.74408C40.1313 2.64453 39.9445 1.66065 39.3824 0.973389ZM11.5549 19.3126L25.105 12.3903L16.6678 21.3555C16.5296 21.5023 16.4316 21.682 16.3834 21.8776L14.7565 28.4676L11.5549 19.3126ZM16.8778 30.198C16.8217 30.2495 16.7652 30.2956 16.7087 30.338L18.2181 24.2247L20.9638 26.4357L16.8778 30.198ZM37.6114 3.27869L32.0637 30.6728C32.0103 30.935 31.8397 31.545 31.4011 31.545C31.1844 31.545 30.9122 31.4269 30.6336 31.2124L23.4937 25.4635C23.4928 25.4625 23.4916 25.4616 23.4904 25.461L19.242 22.04L31.4432 9.0752C31.8339 8.66016 31.8693 8.02448 31.5272 7.56855C31.1848 7.11261 30.5643 6.96918 30.0568 7.22858L9.98908 17.4807L2.87024 15.4439L36.7191 2.52277C37.0051 2.41351 37.2046 2.39063 37.3215 2.39063C37.3932 2.39063 37.5208 2.39917 37.5681 2.45746C37.6304 2.53345 37.7097 2.79254 37.6114 3.27869Z" fill="#FEBD00"/>
</svg>
