<svg width="40" height="40" viewBox="0 0 40 40" fill="none" xmlns="http://www.w3.org/2000/svg">
<path d="M35.17 4.4749C32.0081 1.37504 26.8962 -0.12695 19.9738 0.00839347C12.9937 0.145675 8.32791 1.37082 5.29026 3.86409C2.35324 6.27455 0.985352 9.80176 0.985352 14.9644L0.985352 20.2332C0.985352 26.3279 4.25122 33.0283 10.4931 34.0422C11.2137 34.1601 11.8925 33.6701 12.0095 32.9494C12.1265 32.2289 11.6373 31.5499 10.9167 31.4329C6.18304 30.664 3.62878 25.0887 3.62878 20.2332L3.62878 14.9644C3.62878 7.56172 6.37178 2.91969 20.0256 2.65111C26.2156 2.52846 30.6834 3.7781 33.3191 6.36231C35.373 8.37642 36.3715 11.1901 36.3715 14.9644V20.2332C36.3715 28.2118 32.7904 31.7309 23.6053 32.7671L17.0923 32.7671C16.7418 32.7671 16.4055 32.9064 16.1577 33.1543L11.5686 37.7435C11.0524 38.2597 11.0524 39.0966 11.5686 39.6127C11.8266 39.8707 12.1649 39.9999 12.5031 39.9999C12.8413 39.9999 13.1797 39.8709 13.4377 39.6127L17.6398 35.4106L23.6792 35.4106C23.7278 35.4106 23.7766 35.4079 23.8251 35.4025C29.0816 34.8186 32.6813 33.4506 35.1529 31.0968C37.7517 28.6219 39.0151 25.0684 39.0151 20.2331V14.9644C39.0151 10.506 37.7214 6.97682 35.17 4.4749Z" fill="#FEBD00"/>
<path d="M20.8248 8.63349C20.825 8.63349 20.825 8.63349 20.8253 8.63349C22.9551 8.63349 24.9574 9.463 26.4634 10.969C27.9697 12.4753 28.7992 14.4779 28.799 16.608C28.799 17.3379 29.3906 17.9297 30.1205 17.9297C30.1207 17.9297 30.1207 17.9297 30.1207 17.9297C30.8506 17.9297 31.4424 17.3381 31.4424 16.6082C31.4426 13.772 30.3382 11.1054 28.3327 9.09996C26.3274 7.09448 23.6614 5.99023 20.8253 5.99023C20.8252 5.99023 20.8246 5.99023 20.8245 5.99023C20.0945 5.99023 19.5029 6.58201 19.5029 7.31195C19.5031 8.04171 20.0949 8.63349 20.8248 8.63349Z" fill="#FEBD00"/>
<path d="M20.8245 13.2801C22.6586 13.2805 24.1511 14.7728 24.1513 16.6068C24.1515 17.3368 24.7431 17.9285 25.4732 17.9284C26.2033 17.9284 26.7949 17.3364 26.7947 16.6065C26.7942 13.3152 24.1162 10.6372 20.8248 10.6367H20.8246C20.0947 10.6367 19.5031 11.2283 19.5029 11.9583C19.5029 12.6882 20.0945 13.2801 20.8245 13.2801Z" fill="#FEBD00"/>
<path d="M14.8985 15.5461C14.296 15.9581 14.1414 16.7806 14.5533 17.3831C14.9651 17.9856 15.7877 18.14 16.3903 17.7281C16.8641 17.4042 17.974 16.6454 17.8961 15.1284C17.8468 14.2205 17.0279 12.9242 16.3496 11.9965C15.3574 10.6392 14.5023 9.82165 13.8135 9.56823C13.1702 9.32874 12.4976 9.32363 11.8127 9.55343C10.3943 10.0314 9.36438 10.8951 8.83464 12.0511C8.31882 13.1765 8.33027 14.4699 8.86795 15.7921C10.1379 18.9075 11.9156 21.635 14.1638 23.9104C16.4275 26.1466 19.1548 27.9244 22.2714 29.195C22.9458 29.4694 23.613 29.6067 24.2543 29.6067C24.8693 29.6067 25.4606 29.4805 26.0115 29.2279C27.1675 28.698 28.0311 27.6683 28.5095 26.2481C28.7386 25.5649 28.7335 24.8925 28.4959 24.2537C28.2408 23.5599 27.4231 22.705 26.0659 21.7129C25.1381 21.0345 23.8417 20.2156 22.9303 20.1661C21.4165 20.09 20.6584 21.1979 20.3344 21.6718C19.9224 22.2743 20.0766 23.0968 20.6791 23.509C21.2818 23.9212 22.1041 23.7668 22.5163 23.1643C22.6601 22.954 22.7423 22.8585 22.7893 22.8167C23.5312 23.0545 25.6469 24.6088 26.0277 25.2045C26.037 25.2425 26.0391 25.3005 26.0039 25.4061C25.8372 25.9011 25.512 26.5491 24.9102 26.8251C24.3465 27.0831 23.7059 26.9248 23.2685 26.747C20.4758 25.6084 18.0377 24.0214 16.0329 22.0412C14.0413 20.0253 12.4544 17.5872 11.3165 14.7955C11.1381 14.3571 10.9797 13.7161 11.2379 13.1529C11.5137 12.5511 12.1618 12.2258 12.6553 12.0594C12.7607 12.0242 12.8186 12.0261 12.8588 12.0358C13.4547 12.4173 15.0081 14.5317 15.246 15.2738C15.2041 15.3202 15.1087 15.4025 14.8985 15.5461Z" fill="#FEBD00"/>
</svg>
