<svg width="25" height="25" viewBox="0 0 25 25" fill="none" xmlns="http://www.w3.org/2000/svg">
<path d="M21.9816 2.79681C20.0054 0.859403 16.8105 -0.0793437 12.484 0.00524592C8.12145 0.0910471 5.20531 0.85676 3.30678 2.41506C1.47114 3.92159 0.616211 6.1261 0.616211 9.35273L0.616211 12.6458C0.616211 16.455 2.65738 20.6427 6.55853 21.2763C7.0089 21.35 7.43317 21.0438 7.50631 20.5934C7.57944 20.1431 7.27368 19.7187 6.82331 19.6456C3.86476 19.165 2.26835 15.6804 2.26835 12.6458V9.35273C2.26835 4.72607 3.98273 1.8248 12.5164 1.65695C16.3851 1.58029 19.1775 2.36131 20.8248 3.97644C22.1085 5.23527 22.7326 6.9938 22.7326 9.35273L22.7326 12.6458C22.7326 17.6324 20.4943 19.8318 14.7537 20.4795L10.683 20.4795C10.464 20.4795 10.2538 20.5665 10.099 20.7214L7.23073 23.5897C6.90812 23.9123 6.90812 24.4354 7.23073 24.758C7.39198 24.9192 7.60345 24.9999 7.81482 24.9999C8.02618 24.9999 8.23765 24.9193 8.3989 24.758L11.0253 22.1316L14.7999 22.1316C14.8303 22.1316 14.8608 22.13 14.8911 22.1265C18.1764 21.7616 20.4262 20.9066 21.9709 19.4355C23.5952 17.8887 24.3848 15.6678 24.3848 12.6457L24.3848 9.35273C24.3848 6.56623 23.5763 4.36051 21.9816 2.79681Z" fill="#212121"/>
<path d="M13.0156 5.39569C13.0157 5.39569 13.0157 5.39569 13.016 5.39569C14.347 5.39569 15.5985 5.91413 16.5398 6.85541C17.4812 7.7968 17.9996 9.04846 17.9995 10.3798C17.9995 10.836 18.3692 11.2058 18.8255 11.2058C18.8256 11.2058 18.8256 11.2058 18.8256 11.2058C19.2818 11.2058 19.6516 10.8361 19.6516 10.3799C19.6517 8.60723 18.9615 6.94066 17.7081 5.68723C16.4547 4.43381 14.7885 3.74365 13.016 3.74365C13.0159 3.74365 13.0155 3.74365 13.0154 3.74365C12.5592 3.74365 12.1895 4.11351 12.1895 4.56972C12.1896 5.02583 12.5594 5.39569 13.0156 5.39569Z" fill="#212121"/>
<path d="M13.0154 8.30058C14.1618 8.3008 15.0946 9.23349 15.0947 10.3797C15.0948 10.836 15.4645 11.2058 15.9209 11.2057C16.3772 11.2057 16.7469 10.8357 16.7468 10.3795C16.7465 8.3225 15.0728 6.64877 13.0156 6.64844H13.0155C12.5593 6.64844 12.1896 7.01819 12.1895 7.4744C12.1895 7.93061 12.5592 8.30058 13.0154 8.30058Z" fill="#212121"/>
<path d="M9.31168 9.71606C8.9351 9.97357 8.83851 10.4876 9.09591 10.8642C9.35331 11.2408 9.86746 11.3373 10.244 11.0798C10.5402 10.8774 11.2339 10.4031 11.1852 9.45502C11.1544 8.88756 10.6425 8.07735 10.2186 7.49756C9.59849 6.64924 9.06408 6.13829 8.63353 5.9799C8.23151 5.83022 7.81109 5.82702 7.38308 5.97065C6.49654 6.26936 5.85286 6.80917 5.52177 7.5317C5.19938 8.23508 5.20654 9.04342 5.54259 9.86982C6.33628 11.8169 7.4474 13.5216 8.85249 14.9438C10.2673 16.3414 11.9719 17.4525 13.9197 18.2466C14.3412 18.4181 14.7582 18.5039 15.1591 18.5039C15.5435 18.5039 15.913 18.4251 16.2573 18.2672C16.9798 17.936 17.5195 17.2925 17.8186 16.4048C17.9618 15.9778 17.9586 15.5576 17.8101 15.1583C17.6506 14.7247 17.1395 14.1904 16.2913 13.5703C15.7114 13.1464 14.9012 12.6345 14.3316 12.6036C13.3854 12.556 12.9116 13.2485 12.7091 13.5446C12.4516 13.9212 12.548 14.4352 12.9246 14.6929C13.3013 14.9505 13.8152 14.854 14.0728 14.4774C14.1627 14.346 14.214 14.2863 14.2434 14.2602C14.7071 14.4088 16.0294 15.3803 16.2674 15.7526C16.2733 15.7763 16.2746 15.8126 16.2526 15.8786C16.1484 16.1879 15.9451 16.5929 15.569 16.7654C15.2167 16.9267 14.8163 16.8278 14.5429 16.7166C12.7975 16.005 11.2737 15.0132 10.0207 13.7755C8.77594 12.5156 7.78411 10.9917 7.07291 9.24696C6.96145 8.97293 6.86243 8.57234 7.02379 8.22032C7.19616 7.84418 7.60127 7.64086 7.90967 7.53688C7.97554 7.51485 8.01177 7.51606 8.03689 7.52212C8.40928 7.76058 9.38019 9.08208 9.52888 9.54589C9.50267 9.57486 9.44308 9.62629 9.31168 9.71606Z" fill="#212121"/>
</svg>
