<svg width="30" height="30" viewBox="0 0 30 30" fill="none" xmlns="http://www.w3.org/2000/svg">
<path d="M28.1747 8.025C28.0263 7.43176 27.7238 6.88821 27.2981 6.44926C26.8723 6.0103 26.3382 5.69148 25.7497 5.525C23.5997 5 14.9997 5 14.9997 5C14.9997 5 6.39974 5 4.24974 5.575C3.6613 5.74148 3.12721 6.0603 2.70142 6.49926C2.27563 6.93821 1.97322 7.48176 1.82474 8.075C1.43126 10.2569 1.23878 12.4704 1.24974 14.6875C1.23571 16.9213 1.4282 19.1516 1.82474 21.35C1.98844 21.9248 2.29762 22.4477 2.72242 22.8681C3.14721 23.2885 3.67326 23.5923 4.24974 23.75C6.39974 24.325 14.9997 24.325 14.9997 24.325C14.9997 24.325 23.5997 24.325 25.7497 23.75C26.3382 23.5835 26.8723 23.2647 27.2981 22.8257C27.7238 22.3868 28.0263 21.8432 28.1747 21.25C28.5652 19.0845 28.7576 16.8879 28.7497 14.6875C28.7638 12.4537 28.5713 10.2234 28.1747 8.025V8.025Z" stroke="#C4C4C4" stroke-width="2" stroke-linecap="round" stroke-linejoin="round"/>
<path d="M12.1875 18.7746L19.375 14.6871L12.1875 10.5996L12.1875 18.7746Z" stroke="#C4C4C4" stroke-width="2" stroke-linecap="round" stroke-linejoin="round"/>
</svg>
