<svg width="100" height="70" viewBox="0 0 100 70" fill="none" xmlns="http://www.w3.org/2000/svg">
<path d="M95.75 7.25C93.0375 2.425 90.0938 1.5375 84.1 1.2C78.1125 0.79375 63.0562 0.625 50.0125 0.625C36.9437 0.625 21.8813 0.79375 15.9 1.19375C9.91875 1.5375 6.96875 2.41875 4.23125 7.25C1.4375 12.0687 0 20.3688 0 34.9813C0 34.9938 0 35 0 35C0 35.0125 0 35.0188 0 35.0188V35.0312C0 49.5813 1.4375 57.9437 4.23125 62.7125C6.96875 67.5375 9.9125 68.4125 15.8938 68.8187C21.8813 69.1688 36.9437 69.375 50.0125 69.375C63.0562 69.375 78.1125 69.1687 84.1062 68.825C90.1 68.4187 93.0437 67.5438 95.7562 62.7188C98.575 57.95 100 49.5875 100 35.0375C100 35.0375 100 35.0188 100 35.0063C100 35.0063 100 34.9938 100 34.9875C100 20.3688 98.575 12.0687 95.75 7.25Z" fill="#F44336"/>
<path d="M37.5 53.75V16.25L68.75 35L37.5 53.75Z" fill="#FAFAFA"/>
</svg>
